<?xml version="1.0" encoding="UTF-8"?>
<svg width="153px" height="25px" viewBox="0 0 153 25" version="1.1" xmlns="http://www.w3.org/2000/svg" xmlns:xlink="http://www.w3.org/1999/xlink">
    <!-- Generator: Sketch 52.2 (67145) - http://www.bohemiancoding.com/sketch -->
    <title>logo</title>
    <desc>Created with Sketch.</desc>
    <g id="Main" stroke="none" stroke-width="1" fill="none" fill-rule="evenodd">
        <g id="Главная" transform="translate(-523.000000, -25.000000)" fill-rule="nonzero">
            <g id="headers-/-memories">
                <g id="logo" transform="translate(523.000000, 25.000000)">
                    <path d="M2.13162821e-14,23.9338497 L4.78701166,16.1704568 C-1.39766764,11.9740282 0.34941691,0.398879429 9.95838192,0.363909191 L20.685481,0.363909191 L20.685481,24.8430759 L14.4309184,24.8430759 L14.4309184,17.6392068 L11.1813411,17.6392068 L6.98833819,24.8430759 L2.13162821e-14,24.8430759 L2.13162821e-14,23.9338497 Z M9.95838192,12.0089985 L14.4309184,12.0089985 L14.4309184,5.95914729 C12.9633673,5.95914729 11.4259329,5.92417705 9.95838192,5.95914729 C6.39432945,5.99411752 6.5690379,12.0089985 9.95838192,12.0089985 Z" id="Я" fill="#FF3333"></path>
                    <path d="M42.4770549,0.481696781 L42.4770549,24.4940259 L36.2046705,24.4940259 L36.2046705,6.14174579 L28.8012004,6.14174579 L28.8012004,24.4940259 L22.528816,24.4940259 L22.528816,0.481696781 L42.4770549,0.481696781 Z M68.8919047,12.5221647 C68.8919047,29.1592784 44.2822217,29.1592784 44.2822217,12.5221647 C44.2822217,-4.08064576 68.8919047,-4.08064576 68.8919047,12.5221647 Z M50.5888814,12.5221647 C50.5888814,21.2352098 62.6195203,21.2352098 62.6195203,12.5221647 C62.6195203,3.87772619 50.5888814,3.87772619 50.5888814,12.5221647 Z M82.2821312,10.8413016 L91.8449468,0.413090126 L94.0385675,0.413090126 L94.0385675,24.4940259 L87.7661831,24.4940259 L87.7661831,13.7913878 L82.6591598,19.1427069 L81.9736533,19.1427069 L76.9009052,13.7913878 L76.9009052,24.4940259 L70.6285208,24.4940259 L70.6285208,0.413090126 L72.8906923,0.413090126 L82.2821312,10.8413016 Z M116.224996,0.481696781 L116.224996,24.4940259 L109.952611,24.4940259 L109.952611,14.8547909 L102.549141,14.8547909 L102.549141,24.4940259 L96.2767569,24.4940259 L96.2767569,0.481696781 L102.549141,0.481696781 L102.549141,9.19474193 L109.952611,9.19474193 L109.952611,0.481696781 L116.224996,0.481696781 Z M152.053003,12.5221647 C152.053003,28.3359986 129.876868,29.0906718 127.683248,14.8547909 L124.73557,14.8547909 L124.73557,24.4940259 L118.463185,24.4940259 L118.463185,0.481696781 L124.73557,0.481696781 L124.73557,9.19474193 L127.854624,9.19474193 C130.802302,-4.11494908 152.053003,-2.94863595 152.053003,12.5221647 Z M133.74998,12.5221647 C133.74998,21.2352098 145.780619,21.2352098 145.780619,12.5221647 C145.780619,3.87772619 133.74998,3.87772619 133.74998,12.5221647 Z" id="ПОМНЮ" fill="#FFFFFF"></path>
                </g>
            </g>
        </g>
    </g>
</svg>