<?xml version="1.0" encoding="UTF-8"?>
<svg width="205px" height="34px" viewBox="0 0 205 34" version="1.1" xmlns="http://www.w3.org/2000/svg" xmlns:xlink="http://www.w3.org/1999/xlink">
    <!-- Generator: Sketch 52.2 (67145) - http://www.bohemiancoding.com/sketch -->
    <title>ЯПОМНЮ</title>
    <desc>Created with Sketch.</desc>
    <g id="Symbols" stroke="none" stroke-width="1" fill="none" fill-rule="evenodd">
        <g id="footer" transform="translate(-40.000000, -40.000000)" fill="#000000" fill-rule="nonzero">
            <g id="ЯПОМНЮ">
                <g transform="translate(40.000000, 40.000000)">
                    <path d="M-2.13162821e-14,31.1912498 L6.19806897,21.1272498 C-1.80965517,15.6872498 0.452413793,0.681916499 12.8937931,0.636583166 L26.7828966,0.636583166 L26.7828966,32.3699165 L18.6846897,32.3699165 L18.6846897,23.0312498 L14.4772414,23.0312498 L9.04827586,32.3699165 L-2.13162821e-14,32.3699165 L-2.13162821e-14,31.1912498 Z M12.8937931,15.7325832 L18.6846897,15.7325832 L18.6846897,7.8899165 C16.7845517,7.8899165 14.793931,7.84458317 12.8937931,7.8899165 C8.27917241,7.93524983 8.50537931,15.7325832 12.8937931,15.7325832 Z" id="Я"></path>
                    <path d="M57.4414708,0.636583166 L57.4414708,32.3699165 L49.1622984,32.3699165 L49.1622984,8.11658317 L39.3901604,8.11658317 L39.3901604,32.3699165 L31.110988,32.3699165 L31.110988,0.636583166 L57.4414708,0.636583166 Z M92.3074933,16.5485832 C92.3074933,38.5352498 59.824183,38.5352498 59.824183,16.5485832 C59.824183,-5.39275017 92.3074933,-5.39275017 92.3074933,16.5485832 Z M68.1485968,16.5485832 C68.1485968,28.0632498 84.0283209,28.0632498 84.0283209,16.5485832 C84.0283209,5.12458317 68.1485968,5.12458317 68.1485968,16.5485832 Z M109.981792,14.3272498 L122.604137,0.545916499 L125.499585,0.545916499 L125.499585,32.3699165 L117.220412,32.3699165 L117.220412,18.2259165 L110.479447,25.2979165 L109.574619,25.2979165 L102.878895,18.2259165 L102.878895,32.3699165 L94.5997227,32.3699165 L94.5997227,0.545916499 L97.5856538,0.545916499 L109.981792,14.3272498 Z M156.158159,0.636583166 L156.158159,32.3699165 L147.878987,32.3699165 L147.878987,19.6312498 L138.106849,19.6312498 L138.106849,32.3699165 L129.827676,32.3699165 L129.827676,0.636583166 L138.106849,0.636583166 L138.106849,12.1512498 L147.878987,12.1512498 L147.878987,0.636583166 L156.158159,0.636583166 Z M204.822802,16.5485832 C204.822802,37.4472498 175.55163,38.4445832 172.656182,19.6312498 L168.765423,19.6312498 L168.765423,32.3699165 L160.486251,32.3699165 L160.486251,0.636583166 L168.765423,0.636583166 L168.765423,12.1512498 L172.882388,12.1512498 C176.773147,-5.4380835 204.822802,-3.89675017 204.822802,16.5485832 Z M180.663906,16.5485832 C180.663906,28.0632498 196.54363,28.0632498 196.54363,16.5485832 C196.54363,5.12458317 180.663906,5.12458317 180.663906,16.5485832 Z" id="ПОМНЮ"></path>
                </g>
            </g>
        </g>
    </g>
</svg>